<svg xmlns="http://www.w3.org/2000/svg" viewBox="0 0 1224 585" width="1192" height="553" fill="transparent"><defs><style>@import url('https://fonts.googleapis.com/css2?family=Caveat+Brush&amp;family=Source+Code+Pro&amp;family=Source+Sans+Pro&amp;family=Crimson+Pro&amp;display=block');</style></defs><g transform="translate(363, 67) rotate(0, 99.5, 241)"><g id="4ee4cf2a-13d6-4305-26c3-c8f4b4d889dd_svg" class="tl-centered-g"><path d="M 200.03,87.57 Q 200.03,87.57 199.98,93.54 199.93,99.50 199.89,106.99 199.84,114.48 199.79,122.36 199.74,130.24 199.69,138.21 199.64,146.19 199.59,154.19 199.55,162.19 199.50,170.20 199.45,178.20 199.40,186.21 199.35,194.22 199.30,202.23 199.25,210.24 199.21,218.25 199.16,226.26 199.15,234.27 199.14,242.28 199.17,250.29 199.20,258.30 199.23,266.31 199.26,274.32 199.29,282.33 199.32,290.34 199.35,298.35 199.38,306.36 199.41,314.37 199.44,322.38 199.47,330.39 199.50,338.40 199.53,346.41 199.56,354.42 199.59,362.43 199.62,370.44 199.65,378.45 199.68,386.46 199.71,394.47 199.74,402.48 199.77,410.49 199.79,418.50 199.82,426.51 199.85,434.52 199.88,442.53 199.91,450.54 199.92,458.64 199.93,466.74 196.79,472.26 193.66,477.79 186.19,479.39 178.71,480.99 170.64,481.29 162.57,481.59 154.37,481.64 146.17,481.70 137.93,481.70 129.69,481.70 121.43,481.68 113.18,481.67 104.92,481.75 96.67,481.84 88.41,482.02 80.16,482.21 71.90,482.40 63.65,482.59 55.39,482.77 47.14,482.96 38.88,483.15 30.62,483.33 22.28,483.50 13.93,483.66 8.33,480.55 2.73,477.43 1.11,470.17 -0.51,462.91 -0.80,455.06 -1.09,447.22 -1.14,439.27 -1.18,431.32 -1.17,423.33 -1.15,415.35 -1.12,407.35 -1.09,399.35 -1.06,391.35 -1.03,383.36 -0.99,375.36 -0.96,367.36 -0.93,359.36 -0.89,351.36 -0.86,343.36 -0.82,335.36 -0.79,327.36 -0.75,319.36 -0.72,311.36 -0.68,303.36 -0.65,295.36 -0.61,287.36 -0.58,279.36 -0.55,271.36 -0.51,263.36 -0.48,255.36 -0.48,247.36 -0.49,239.36 -0.53,231.36 -0.57,223.36 -0.62,215.36 -0.66,207.36 -0.71,199.36 -0.75,191.36 -0.79,183.36 -0.84,175.36 -0.88,167.36 -0.93,159.36 -0.97,151.36 -1.01,143.36 -1.06,135.36 -1.10,127.36 -1.15,119.36 -1.19,111.36 -1.23,103.36 -1.28,95.36 -1.32,87.36 -1.37,79.36 -1.41,71.36 -1.45,63.36 -1.50,55.37 -1.54,47.37 -1.58,39.37 -1.63,31.37 -1.65,23.28 -1.67,15.19 1.45,9.66 4.57,4.14 12.07,2.52 19.58,0.90 27.68,0.58 35.78,0.25 44.02,0.17 52.26,0.09 60.54,0.06 68.82,0.04 77.11,0.02 85.40,0.01 93.69,-0.09 101.98,-0.20 110.28,-0.41 118.57,-0.63 126.86,-0.84 135.15,-1.05 143.45,-1.27 151.74,-1.48 160.03,-1.70 168.32,-1.91 176.71,-2.10 185.09,-2.29 190.71,0.81 196.32,3.92 197.93,11.19 199.55,18.46 199.83,26.31 200.11,34.16 200.14,42.12 200.17,50.08 200.14,58.08 200.12,66.07 200.07,74.08 200.03,82.09 199.98,90.10 199.93,98.11 199.89,106.12 199.84,114.12 199.79,122.13 199.74,130.14 199.69,138.15 199.64,146.16 199.59,154.17 199.55,162.18 199.50,170.19 199.45,178.20 199.40,186.21 199.35,194.22 199.30,202.23 199.25,210.24 199.21,218.25 199.16,226.26 199.15,234.27 199.14,242.28 199.17,250.29 199.20,258.30 199.22,269.05 199.25,279.81 199.20,280.12 199.15,280.43 199.00,280.70 198.85,280.98 198.62,281.20 198.40,281.42 198.11,281.55 197.82,281.68 197.51,281.71 197.20,281.75 196.89,281.68 196.58,281.61 196.31,281.45 196.04,281.29 195.84,281.04 195.64,280.80 195.52,280.51 195.40,280.22 195.39,279.90 195.37,279.59 195.46,279.29 195.54,278.98 195.72,278.72 195.89,278.46 196.15,278.27 196.40,278.08 196.69,277.98 196.99,277.88 197.31,277.88 197.62,277.88 197.92,277.98 198.22,278.09 198.47,278.28 198.72,278.47 198.90,278.73 199.07,278.99 199.16,279.29 199.24,279.60 199.22,279.91 199.21,280.22 199.09,280.52 198.97,280.81 198.77,281.05 198.56,281.29 198.29,281.45 198.02,281.61 197.72,281.68 197.41,281.75 197.10,281.71 196.78,281.68 196.50,281.55 196.21,281.41 195.98,281.20 195.75,280.98 195.61,280.70 195.46,280.42 195.41,280.11 195.36,279.80 195.36,279.80 195.36,279.80 195.41,269.05 195.46,258.30 195.51,250.29 195.56,242.28 195.57,234.27 195.58,226.26 195.55,218.25 195.52,210.24 195.49,202.23 195.46,194.22 195.43,186.21 195.40,178.20 195.37,170.19 195.34,162.18 195.31,154.17 195.28,146.16 195.25,138.15 195.22,130.14 195.19,122.13 195.16,114.12 195.13,106.11 195.10,98.10 195.07,90.09 195.04,82.08 195.00,74.08 194.97,66.08 194.92,58.10 194.87,50.13 194.76,42.25 194.65,34.37 194.34,26.91 194.02,19.45 193.24,13.46 192.47,7.48 188.63,5.43 184.80,3.38 176.60,3.41 168.39,3.44 160.10,3.45 151.80,3.46 143.51,3.46 135.21,3.47 126.92,3.48 118.62,3.48 110.33,3.49 102.03,3.50 93.74,3.61 85.45,3.72 77.16,3.94 68.88,4.16 60.62,4.39 52.36,4.62 44.20,4.91 36.04,5.20 28.29,5.68 20.55,6.17 14.36,7.08 8.17,8.00 6.09,11.77 4.00,15.54 3.99,23.45 3.98,31.36 3.94,39.36 3.91,47.36 3.88,55.36 3.84,63.36 3.81,71.36 3.77,79.36 3.74,87.36 3.70,95.36 3.67,103.36 3.63,111.36 3.60,119.36 3.57,127.36 3.53,135.36 3.50,143.36 3.46,151.36 3.43,159.36 3.39,167.36 3.36,175.36 3.32,183.36 3.29,191.36 3.25,199.36 3.22,207.36 3.19,215.36 3.15,223.36 3.12,231.36 3.08,239.36 3.09,247.36 3.09,255.36 3.14,263.36 3.18,271.36 3.22,279.36 3.27,287.36 3.31,295.36 3.36,303.36 3.40,311.36 3.44,319.36 3.49,327.35 3.53,335.35 3.58,343.35 3.62,351.35 3.66,359.35 3.71,367.35 3.75,375.35 3.80,383.35 3.84,391.35 3.89,399.35 3.94,407.34 3.98,415.33 4.05,423.30 4.11,431.26 4.23,439.13 4.35,447.00 4.68,454.45 5.01,461.91 5.80,467.88 6.58,473.86 10.41,475.92 14.24,477.98 22.40,477.97 30.57,477.97 38.83,477.99 47.09,478.01 55.34,478.03 63.60,478.05 71.86,478.07 80.12,478.09 88.37,478.11 96.63,478.13 104.89,478.05 113.14,477.96 121.39,477.77 129.64,477.58 137.86,477.37 146.08,477.17 154.21,476.90 162.33,476.64 170.04,476.18 177.75,475.72 183.91,474.82 190.07,473.93 192.16,470.15 194.25,466.38 194.27,458.45 194.30,450.53 194.34,442.53 194.39,434.52 194.44,426.51 194.49,418.50 194.54,410.49 194.59,402.48 194.64,394.47 194.69,386.46 194.73,378.45 194.78,370.44 194.83,362.43 194.88,354.42 194.93,346.41 194.98,338.40 195.03,330.39 195.07,322.38 195.12,314.37 195.17,306.36 195.22,298.35 195.27,290.34 195.32,282.33 195.37,274.32 195.41,266.31 195.46,258.30 195.51,250.29 195.56,242.28 195.57,234.27 195.58,226.26 195.55,218.25 195.52,210.24 195.49,202.23 195.46,194.22 195.43,186.21 195.40,178.20 195.37,170.19 195.34,162.18 195.31,154.18 195.28,146.18 195.25,138.21 195.22,130.23 195.19,122.35 195.16,114.48 195.13,106.99 195.10,99.50 195.07,93.53 195.04,87.56 195.07,87.26 195.11,86.97 195.22,86.68 195.32,86.40 195.49,86.16 195.67,85.91 195.89,85.71 196.12,85.51 196.38,85.37 196.65,85.23 196.94,85.16 197.23,85.09 197.53,85.09 197.83,85.09 198.13,85.16 198.42,85.23 198.68,85.37 198.95,85.51 199.18,85.71 199.40,85.91 199.57,86.16 199.74,86.41 199.85,86.69 199.95,86.97 199.99,87.27 Z" fill="#4263eb" stroke="#4263eb" stroke-width="3.5" pointer-events="none"/></g><g font-size="48" font-family="Caveat Brush" text-align="left" fill="#4263eb" transform-origin="top left" transform="translate(91.5, 225)"><text y="31.20"/></g></g><g transform="translate(368, 247) rotate(0, 95.5, 0.5)"><g id="c0032545-1399-4f8b-1043-b6c41ec264bd_svg" class="tl-centered-g"><defs><mask id="c0032545-1399-4f8b-1043-b6c41ec264bd_clip"><rect x="-100" y="-100" width="391" height="201" fill="white"/><rect x="95.5" y="0.5" width="0" height="0" rx="4" ry="4" fill="black" opacity="1"/></mask></defs><g pointer-events="none" opacity="1" mask=""><path d="M -0.00,-0.63 Q -0.00,-0.63 23.86,-0.69 47.74,-0.76 71.61,-0.83 95.49,-0.91 119.36,-1.00 143.24,-1.09 167.11,-1.19 190.99,-1.29 191.20,-1.26 191.40,-1.23 191.59,-1.13 191.77,-1.03 191.92,-0.88 192.07,-0.73 192.15,-0.54 192.24,-0.35 192.27,-0.14 192.29,0.06 192.25,0.26 192.20,0.47 192.10,0.65 191.99,0.83 191.83,0.97 191.67,1.10 191.47,1.18 191.28,1.26 191.07,1.27 190.86,1.29 190.66,1.23 190.46,1.18 190.28,1.06 190.11,0.94 189.98,0.77 189.85,0.61 189.78,0.41 189.72,0.21 189.71,0.00 189.71,-0.20 189.78,-0.40 189.85,-0.60 189.97,-0.76 190.10,-0.93 190.27,-1.05 190.44,-1.17 190.65,-1.23 190.85,-1.28 191.06,-1.27 191.27,-1.26 191.46,-1.19 191.66,-1.11 191.82,-0.97 191.98,-0.84 192.09,-0.66 192.20,-0.48 192.24,-0.28 192.29,-0.07 192.27,0.13 192.25,0.34 192.16,0.53 192.07,0.72 191.93,0.87 191.79,1.02 191.60,1.12 191.42,1.22 191.21,1.26 191.00,1.29 191.00,1.29 191.00,1.29 167.13,1.44 143.25,1.59 119.38,1.75 95.50,1.91 71.63,2.08 47.75,2.26 23.88,2.44 0.00,2.63 -0.18,2.61 -0.38,2.59 -0.56,2.52 -0.75,2.45 -0.91,2.34 -1.07,2.23 -1.21,2.08 -1.34,1.93 -1.43,1.76 -1.52,1.58 -1.57,1.39 -1.62,1.20 -1.62,1.00 -1.62,0.81 -1.57,0.61 -1.53,0.42 -1.44,0.25 -1.35,0.07 -1.22,-0.07 -1.09,-0.21 -0.92,-0.33 -0.76,-0.44 -0.58,-0.51 -0.39,-0.58 -0.20,-0.61 Z" fill="#4263eb" stroke="#4263eb" stroke-width="3.33" stroke-dasharray="none" stroke-dashoffset="none" stroke-linecap="round" stroke-linejoin="round" pointer-events="stroke"/></g></g><g font-size="48" font-family="Caveat Brush" text-align="left" fill="#4263eb" transform-origin="top left" transform="translate(87.5, -15.5)"><text y="31.20"/></g></g><g transform="translate(370, 332) rotate(0, 93, 1)"><g id="4e810285-a56c-4c23-1de8-8cd47e79c4ee_svg" class="tl-centered-g"><defs><mask id="4e810285-a56c-4c23-1de8-8cd47e79c4ee_clip"><rect x="-100" y="-100" width="386" height="202" fill="white"/><rect x="93" y="1" width="0" height="0" rx="4" ry="4" fill="black" opacity="1"/></mask></defs><g pointer-events="none" opacity="1" mask=""><path d="M -0.01,0.31 Q -0.01,0.31 23.23,0.12 46.48,-0.06 69.73,-0.27 92.98,-0.47 116.23,-0.69 139.48,-0.91 162.73,-1.13 185.98,-1.36 186.20,-1.33 186.42,-1.29 186.61,-1.19 186.81,-1.09 186.96,-0.93 187.12,-0.77 187.21,-0.57 187.31,-0.37 187.33,-0.16 187.36,0.05 187.31,0.27 187.27,0.49 187.16,0.68 187.05,0.87 186.88,1.01 186.71,1.16 186.51,1.24 186.30,1.33 186.08,1.34 185.86,1.35 185.65,1.30 185.43,1.24 185.25,1.12 185.07,1.00 184.93,0.82 184.80,0.65 184.72,0.44 184.65,0.23 184.65,0.01 184.65,-0.20 184.71,-0.41 184.78,-0.62 184.91,-0.80 185.05,-0.98 185.23,-1.10 185.41,-1.23 185.62,-1.29 185.83,-1.35 186.05,-1.34 186.27,-1.33 186.48,-1.25 186.69,-1.17 186.86,-1.03 187.03,-0.89 187.14,-0.70 187.26,-0.51 187.31,-0.30 187.36,-0.08 187.34,0.13 187.31,0.35 187.22,0.55 187.13,0.75 186.98,0.91 186.83,1.07 186.64,1.18 186.44,1.28 186.23,1.32 186.01,1.36 186.01,1.36 186.01,1.36 162.76,1.63 139.51,1.91 116.26,2.19 93.01,2.47 69.76,2.77 46.51,3.06 23.26,3.37 0.01,3.68 -0.18,3.66 -0.38,3.64 -0.57,3.57 -0.76,3.50 -0.93,3.38 -1.10,3.27 -1.24,3.12 -1.37,2.97 -1.47,2.79 -1.56,2.61 -1.62,2.41 -1.67,2.22 -1.67,2.01 -1.67,1.81 -1.62,1.61 -1.58,1.41 -1.48,1.23 -1.39,1.05 -1.26,0.90 -1.13,0.75 -0.96,0.63 -0.79,0.51 -0.60,0.44 -0.42,0.36 -0.21,0.34 Z" fill="#4263eb" stroke="#4263eb" stroke-width="3.33" stroke-dasharray="none" stroke-dashoffset="none" stroke-linecap="round" stroke-linejoin="round" pointer-events="stroke"/></g></g><g font-size="48" font-family="Caveat Brush" text-align="left" fill="#4263eb" transform-origin="top left" transform="translate(85, -15)"><text y="31.20"/></g></g><g id="c5e50560-0d88-401a-318e-b8d527911303_svg" class="tl-centered-g" transform="translate(451, 121) rotate(0, 5, 3.5)"><g opacity="1"><path d="M 10.91,8.58 Q 10.91,8.58 9.59,8.80 8.28,9.03 5.02,7.78 1.77,6.53 0.69,3.77 -0.37,1.00 1.41,-1.58 3.21,-4.17 6.10,-4.06 8.99,-3.94 10.95,-1.73 12.92,0.46 12.34,4.23 11.77,8.00 8.86,9.34 5.96,10.69 3.15,10.54 0.33,10.38 -1.35,8.83 -3.04,7.28 -3.14,3.99 -3.24,0.70 -0.72,-1.30 1.79,-3.31 4.21,-3.25 6.62,-3.20 9.18,-0.37 11.75,2.44 10.66,5.73 9.57,9.02 6.30,10.03 3.04,11.04 1.06,8.90 -0.91,6.76 4.66,5.15 10.24,3.54 10.33,4.42 10.43,5.29 10.24,6.15 10.05,7.01 9.59,7.77 9.14,8.52 8.47,9.09 7.80,9.66 6.98,9.98 6.16,10.31 5.28,10.36 4.40,10.40 3.55,10.17 2.71,9.93 1.98,9.44 1.25,8.94 0.72,8.24 0.19,7.54 -0.08,6.70 -0.36,5.87 -0.36,4.99 -0.36,4.11 -0.08,3.28 0.19,2.44 0.72,1.74 1.26,1.04 1.99,0.55 2.72,0.06 3.56,-0.17 4.41,-0.40 5.29,-0.36 6.17,-0.31 6.99,0.01 7.80,0.34 8.47,0.91 9.14,1.48 9.60,2.23 10.05,2.99 10.24,3.85 10.43,4.71 10.33,5.58 10.24,6.46 9.86,7.25 9.49,8.05 8.89,8.69 8.28,9.33 7.50,9.74 6.73,10.15 5.86,10.29 4.99,10.43 4.12,10.29 3.25,10.15 2.48,9.74 1.70,9.32 1.09,8.68 0.49,8.04 0.12,7.24 -0.24,6.44 -0.24,6.45 -0.24,6.45 3.93,5.40 8.10,4.35 6.61,2.67 5.11,0.99 3.27,2.83 1.43,4.66 3.77,5.08 6.12,5.49 5.08,3.49 4.04,1.49 5.62,3.18 7.20,4.88 7.22,2.37 7.24,-0.13 8.16,-0.36 9.08,-0.58 9.64,-0.62 10.20,-0.67 10.76,-0.57 11.31,-0.48 11.83,-0.26 12.35,-0.04 12.80,0.29 13.25,0.64 13.60,1.07 13.96,1.51 14.20,2.02 14.44,2.53 14.55,3.08 14.66,3.64 14.63,4.20 14.61,4.76 14.45,5.30 14.29,5.85 14.01,6.33 13.72,6.82 13.33,7.22 12.94,7.63 12.46,7.93 11.98,8.23 11.45,8.40 Z" fill="#4263eb" stroke="#4263eb" stroke-width="1.75" stroke-linejoin="round" stroke-linecap="round" pointer-events="none"/></g></g><g id="26cf2e03-d7ae-4550-1d1b-c46de34c5da7_svg" class="tl-centered-g" transform="translate(456, 154) rotate(0, 3.5, 3)"><g opacity="1"><path d="M 6.81,6.75 Q 6.81,6.75 5.39,7.57 3.97,8.38 0.72,7.06 -2.51,5.73 -2.75,3.06 -2.99,0.40 -1.36,-1.51 0.27,-3.44 2.83,-3.89 5.39,-4.35 8.12,-2.12 10.84,0.09 10.89,2.14 10.95,4.19 9.80,5.87 8.65,7.56 5.89,8.59 3.12,9.62 -0.01,7.33 -3.15,5.04 -3.04,2.97 -2.94,0.91 0.24,-0.74 3.42,-2.41 6.10,0.50 8.77,3.42 6.76,6.50 4.75,9.58 0.20,6.25 -4.34,2.91 -4.19,2.06 -4.03,1.21 -3.62,0.45 -3.20,-0.30 -2.56,-0.88 -1.92,-1.46 -1.13,-1.82 -0.34,-2.17 0.51,-2.25 1.37,-2.33 2.21,-2.13 3.05,-1.93 3.78,-1.47 4.52,-1.01 5.07,-0.35 5.62,0.31 5.92,1.12 6.23,1.93 6.27,2.79 6.30,3.66 6.05,4.49 5.81,5.31 5.31,6.02 4.82,6.73 4.12,7.24 3.42,7.76 2.60,8.02 1.78,8.28 0.91,8.27 0.05,8.25 -0.76,7.97 -1.57,7.68 -2.25,7.14 -2.93,6.61 -3.41,5.89 -3.88,5.16 -4.10,4.33 -4.32,3.49 -4.26,2.63 -4.20,1.76 -3.86,0.97 -3.53,0.17 -2.96,-0.47 -2.39,-1.12 -1.64,-1.56 -0.89,-1.99 -0.05,-2.16 0.79,-2.34 1.65,-2.23 2.51,-2.12 3.29,-1.75 4.06,-1.37 4.68,-0.77 5.30,-0.16 5.69,0.60 6.09,1.37 6.21,2.22 6.34,3.08 6.34,3.08 6.34,3.08 2.60,2.32 -1.14,1.56 -0.66,3.83 -0.17,6.09 2.58,6.44 5.33,6.79 5.71,4.62 6.08,2.45 3.92,1.25 1.76,0.05 3.36,1.34 4.95,2.64 2.70,1.46 0.44,0.29 0.81,-0.22 1.18,-0.75 1.67,-1.03 2.16,-1.31 2.70,-1.47 3.25,-1.63 3.81,-1.65 4.38,-1.67 4.93,-1.56 5.48,-1.44 6.00,-1.20 6.51,-0.96 6.94,-0.60 7.38,-0.24 7.72,0.20 8.06,0.65 8.28,1.17 8.50,1.69 8.59,2.25 8.68,2.81 8.64,3.37 8.59,3.94 8.41,4.47 8.23,5.01 7.93,5.49 7.63,5.97 7.22,6.36 Z" fill="#4263eb" stroke="#4263eb" stroke-width="1.75" stroke-linejoin="round" stroke-linecap="round" pointer-events="none"/></g></g><g id="7bf0db10-fd2c-4802-144b-126e7a90be8f_svg" class="tl-centered-g" transform="translate(457, 186) rotate(0, 3.5, 2.5)"><g opacity="1"><path d="M 1.51,8.45 Q 1.51,8.45 -0.46,6.16 -2.45,3.88 -1.90,1.27 -1.35,-1.34 1.41,-2.61 4.19,-3.88 7.09,-1.44 9.99,0.99 9.66,3.35 9.32,5.70 6.53,7.52 3.74,9.35 0.73,7.06 -2.28,4.77 -0.93,1.42 0.41,-1.92 3.64,-2.56 6.86,-3.20 5.34,-2.50 3.81,-1.79 4.64,-2.01 5.46,-2.24 6.31,-2.18 7.16,-2.13 7.95,-1.81 8.74,-1.49 9.39,-0.94 10.03,-0.38 10.47,0.34 10.90,1.08 11.08,1.91 11.26,2.74 11.16,3.59 11.06,4.44 10.70,5.21 10.34,5.98 9.75,6.59 9.16,7.21 8.40,7.60 7.65,8.00 6.80,8.13 5.96,8.26 5.12,8.12 4.28,7.98 3.53,7.57 2.78,7.17 2.20,6.55 1.62,5.92 1.26,5.15 0.91,4.37 0.82,3.52 0.74,2.68 0.92,1.84 1.11,1.01 1.56,0.29 2.00,-0.43 2.65,-0.98 3.31,-1.53 4.10,-1.84 4.90,-2.15 5.75,-2.19 6.60,-2.23 7.42,-2.00 8.24,-1.76 8.94,-1.28 9.64,-0.80 10.15,-0.11 10.67,0.56 10.93,1.37 11.20,2.18 11.19,3.03 11.19,3.88 10.91,4.69 10.63,5.49 10.11,6.17 9.59,6.84 8.88,7.32 8.18,7.79 8.18,7.79 8.18,7.79 5.95,7.28 3.73,6.76 5.38,4.72 7.03,2.68 4.32,1.30 1.62,-0.08 1.87,2.62 2.13,5.32 3.94,4.27 5.76,3.22 5.12,1.38 4.48,-0.45 4.99,-0.21 5.50,0.03 5.94,0.38 6.38,0.74 6.72,1.19 7.06,1.65 7.28,2.17 7.50,2.69 7.60,3.25 7.69,3.80 7.64,4.37 7.60,4.93 7.42,5.47 7.24,6.01 6.94,6.48 6.63,6.96 6.23,7.36 5.82,7.75 5.33,8.03 4.84,8.31 4.29,8.47 3.75,8.63 3.18,8.65 2.62,8.68 2.06,8.56 Z" fill="#4263eb" stroke="#4263eb" stroke-width="1.75" stroke-linejoin="round" stroke-linecap="round" pointer-events="none"/></g></g><g id="147c56e6-1895-464d-0dc2-7c26a993f454_svg" class="tl-centered-g" transform="translate(454, 385) rotate(0, 3, 3.5)"><g opacity="1"><path d="M 8.69,1 Q 8.69,1 6.58,4.13 4.48,7.27 2.97,7.29 1.47,7.31 0.89,7.27 0.31,7.23 -0.24,7.05 -0.79,6.88 -1.29,6.57 -1.79,6.26 -2.19,5.85 -2.60,5.43 -2.90,4.93 -3.20,4.43 -3.37,3.87 -3.54,3.32 -3.57,2.73 -3.60,2.15 -3.49,1.58 -3.38,1.01 -3.13,0.48 -2.89,-0.04 -2.53,-0.50 -2.16,-0.95 -1.70,-1.31 -1.24,-1.66 -0.71,-1.90 -0.17,-2.13 0.39,-2.23 0.96,-2.33 -0.86,-1.38 -2.69,-0.42 -1.03,-2.08 0.63,-3.73 4.33,-3.23 8.04,-2.73 9.22,0.26 10.41,3.26 9.80,5.24 9.19,7.21 7.00,8.99 4.81,10.77 0.56,8.67 -3.68,6.56 -2.55,3.71 -1.41,0.87 0.57,0.02 2.56,-0.82 3.05,-0.89 3.54,-0.97 4.17,-1.04 4.80,-1.11 5.44,-1.03 6.07,-0.95 6.66,-0.72 7.25,-0.49 7.77,-0.12 8.29,0.23 8.71,0.71 9.13,1.19 9.42,1.75 9.72,2.32 9.86,2.94 10.01,3.56 10.01,4.19 10.00,4.83 9.85,5.44 9.69,6.06 9.39,6.62 9.09,7.18 8.67,7.66 8.24,8.13 7.72,8.49 7.19,8.85 6.59,9.07 6.00,9.29 1.57,8.66 -2.85,8.04 -2.17,4.70 -1.49,1.36 0.95,0.13 3.41,-1.09 4.26,-1.21 5.12,-1.33 5.97,-1.17 6.82,-1.01 7.57,-0.59 8.32,-0.17 8.90,0.46 9.48,1.10 9.83,1.90 10.17,2.69 10.24,3.55 10.32,4.41 10.11,5.25 9.91,6.09 9.44,6.82 8.98,7.55 8.31,8.09 7.64,8.63 6.83,8.93 6.02,9.23 5.16,9.26 4.29,9.29 3.47,9.04 2.64,8.79 1.94,8.28 1.23,7.78 0.73,7.08 0.22,6.38 -0.03,5.56 -0.28,4.73 -0.26,3.87 -0.24,3.01 0.04,2.20 0.34,1.38 0.88,0.71 1.42,0.03 2.14,-0.42 2.87,-0.89 3.71,-1.10 4.54,-1.31 5.40,-1.25 6.27,-1.18 7.06,-0.84 7.85,-0.50 8.50,0.06 9.14,0.64 9.57,1.39 10.00,2.14 10.17,2.98 10.33,3.83 10.22,4.69 10.10,5.54 9.72,6.32 9.34,7.09 8.73,7.71 8.12,8.32 7.35,8.71 6.58,9.09 6.58,9.09 6.58,9.09 5.18,9.28 3.79,9.46 4.59,6.46 5.39,3.46 4.46,1.24 3.54,-0.97 4.17,-1.04 4.80,-1.11 5.44,-1.03 6.07,-0.95 6.66,-0.72 7.25,-0.49 7.77,-0.12 8.29,0.23 8.71,0.71 9.13,1.19 9.42,1.75 9.72,2.32 9.86,2.94 10.01,3.56 10.01,4.19 10.00,4.83 9.85,5.44 9.69,6.06 9.39,6.62 9.09,7.18 8.67,7.66 8.24,8.13 7.72,8.49 7.19,8.84 6.59,9.07 6.00,9.29 5.76,8.36 5.52,7.43 3.58,6.14 1.64,4.86 3.73,4.46 5.83,4.07 3.65,5.69 1.47,7.31 0.89,7.27 0.31,7.23 -0.24,7.05 -0.79,6.88 -1.29,6.57 -1.78,6.26 -2.19,5.85 -2.60,5.43 -2.90,4.93 -3.20,4.43 -3.37,3.87 -3.54,3.32 -3.57,2.74 -3.60,2.15 -3.49,1.58 -3.38,1.01 -3.13,0.48 -2.89,-0.04 -2.53,-0.50 -2.16,-0.95 -1.70,-1.31 -1.24,-1.66 -0.71,-1.90 -0.18,-2.13 0.39,-2.23 0.96,-2.33 2.24,-2.01 3.51,-1.69 1.41,-0.34 -0.69,1 -0.62,0.43 -0.55,-0.12 -0.35,-0.65 -0.15,-1.18 0.16,-1.64 0.48,-2.11 0.91,-2.48 1.33,-2.86 1.83,-3.12 2.33,-3.38 2.88,-3.52 3.43,-3.65 4.00,-3.65 4.56,-3.65 5.11,-3.52 5.66,-3.38 6.16,-3.12 6.66,-2.86 7.08,-2.48 7.51,-2.11 7.83,-1.64 8.15,-1.18 8.35,-0.65 8.55,-0.12 8.62,0.43 Z" fill="#4263eb" stroke="#4263eb" stroke-width="1.75" stroke-linejoin="round" stroke-linecap="round" pointer-events="none"/></g></g><g id="c57a2c38-3378-43e0-3347-7fde9ae4573a_svg" class="tl-centered-g" transform="translate(460, 442) rotate(0, 4, 4.5)"><g opacity="1"><path d="M 7.67,0 Q 7.67,0 7.68,1.16 7.69,2.33 5.48,5.37 3.27,8.42 1.19,8.33 -0.88,8.24 -2.34,6.38 -3.80,4.51 -3.10,1.70 -2.39,-1.10 1.03,-2.14 4.45,-3.19 6.99,-1.69 9.53,-0.19 9.98,3.18 10.42,6.57 8.70,9.01 6.98,11.46 3.14,11.91 -0.69,12.37 -2.22,9.71 -3.75,7.06 -2.62,4.21 -1.49,1.36 1.93,-0.26 5.35,-1.88 7.89,-0.45 10.43,0.97 10.93,3.21 11.43,5.45 8.86,7.98 6.30,10.52 2.56,8.98 -1.16,7.44 -0.50,4.51 0.14,1.59 3.53,-0.39 6.92,-2.37 7.78,-2.24 8.64,-2.11 9.41,-1.71 10.19,-1.32 10.79,-0.70 11.40,-0.07 11.78,0.70 12.15,1.48 12.26,2.35 12.36,3.21 12.19,4.06 12.01,4.91 11.58,5.66 11.14,6.42 10.48,6.99 9.83,7.56 9.03,7.89 8.22,8.23 7.36,8.28 6.49,8.34 5.65,8.12 4.81,7.90 4.08,7.43 3.36,6.95 2.82,6.26 2.28,5.58 1.99,4.76 1.71,3.94 1.69,3.07 1.68,2.20 1.95,1.37 2.21,0.55 2.73,-0.14 3.25,-0.84 3.96,-1.34 4.67,-1.84 5.51,-2.08 6.34,-2.33 7.21,-2.29 8.08,-2.26 8.89,-1.95 9.70,-1.64 10.37,-1.08 11.04,-0.53 11.50,0.20 11.96,0.94 12.16,1.78 12.36,2.63 12.27,3.49 12.19,4.36 11.84,5.15 11.48,5.95 10.89,6.59 10.31,7.23 9.54,7.64 8.78,8.06 7.93,8.22 7.07,8.37 7.07,8.37 7.07,8.37 6.72,8.33 6.38,8.28 7.25,6.12 8.13,3.95 5.24,3.48 2.34,3.01 3.78,5.14 5.22,7.28 3.00,5.79 0.77,4.30 3.03,4.44 5.29,4.57 3.87,2.25 2.44,-0.07 0.37,1.03 -1.69,2.14 -1.68,1.07 -1.67,0 -1.61,-0.55 -1.54,-1.11 -1.34,-1.64 -1.14,-2.17 -0.82,-2.63 -0.50,-3.10 -0.08,-3.47 0.34,-3.85 0.84,-4.11 1.34,-4.37 1.88,-4.51 2.43,-4.64 3.00,-4.64 3.56,-4.64 4.11,-4.51 4.65,-4.37 5.15,-4.11 5.65,-3.85 6.08,-3.47 6.50,-3.10 6.82,-2.63 7.14,-2.17 7.34,-1.64 7.54,-1.11 7.61,-0.55 Z" fill="#4263eb" stroke="#4263eb" stroke-width="1.75" stroke-linejoin="round" stroke-linecap="round" pointer-events="none"/></g></g><g id="e8ce517b-69ef-4981-2d2d-ee8d9a940868_svg" class="tl-centered-g" transform="translate(454, 506) rotate(0, 7, 3)"><g opacity="1"><path d="M 12.46,7.39 Q 12.46,7.39 11.11,7.84 9.77,8.29 6.19,8.49 2.62,8.69 0.82,5.04 -0.97,1.39 1.30,-0.87 3.58,-3.15 7.29,-3.32 11.00,-3.48 13.09,-1.33 15.19,0.80 14.43,4.11 13.66,7.41 9.36,8.36 5.06,9.31 3.66,7.57 2.25,5.82 3.75,2.53 5.24,-0.74 7.43,-1.47 9.62,-2.19 10.11,-2.38 10.59,-2.56 11.21,-2.63 11.82,-2.70 12.44,-2.62 13.05,-2.55 13.63,-2.32 14.20,-2.10 14.71,-1.75 15.21,-1.39 15.62,-0.93 16.03,-0.46 16.31,0.08 16.60,0.63 16.74,1.23 16.89,1.83 16.88,2.45 16.88,3.07 16.73,3.67 16.57,4.27 16.28,4.81 15.99,5.36 15.58,5.82 15.17,6.28 14.66,6.62 14.15,6.97 13.57,7.19 12.99,7.40 9.35,7.39 5.71,7.37 5.57,4.01 5.44,0.65 7.05,-0.41 8.66,-1.48 9.26,-1.69 9.86,-1.90 10.49,-1.96 11.12,-2.03 11.74,-1.93 12.37,-1.84 12.96,-1.61 13.54,-1.37 14.06,-1.00 14.57,-0.62 14.98,-0.14 15.39,0.33 15.67,0.90 15.95,1.47 16.09,2.08 16.22,2.70 16.21,3.34 16.20,3.97 16.03,4.58 15.86,5.19 15.56,5.75 15.25,6.30 14.82,6.76 14.39,7.23 13.86,7.58 13.33,7.92 14.70,6.02 16.07,4.11 14.24,6.73 12.41,9.34 10.27,10.10 8.12,10.85 4.68,8.74 1.24,6.63 1.07,4.52 0.90,2.42 2.06,0.75 3.23,-0.90 8.37,-0.24 13.52,0.42 13.23,3.34 12.94,6.27 10.14,7.97 7.35,9.67 3.37,8.34 -0.60,7.00 -1.09,4.75 -1.58,2.50 -0.57,0.69 0.43,-1.12 4.62,-1.40 8.81,-1.68 10.21,1.82 11.61,5.32 9.21,7.79 6.81,10.26 4.24,10.09 1.67,9.92 2.96,10.05 4.25,10.17 3.59,10.27 2.94,10.37 2.28,10.31 1.62,10.25 0.99,10.03 0.37,9.82 -0.18,9.46 -0.73,9.10 -1.19,8.62 -1.64,8.14 -1.97,7.56 -2.29,6.99 -2.47,6.35 -2.65,5.71 -2.67,5.05 -2.69,4.39 -2.55,3.74 -2.41,3.10 -2.12,2.50 -1.83,1.91 -1.41,1.40 -0.99,0.89 -0.45,0.50 0.07,0.10 0.68,-0.14 1.29,-0.39 3.56,-1.62 5.82,-2.84 9.63,-0.77 13.43,1.29 12.86,4.54 12.28,7.79 9.70,9.25 7.12,10.70 4.15,10.45 1.17,10.20 -0.77,8.87 -2.71,7.54 -3.37,6.99 -4.02,6.44 -4.47,5.70 -4.91,4.97 -5.10,4.13 -5.29,3.30 -5.20,2.44 -5.11,1.59 -4.75,0.81 -4.39,0.03 -3.80,-0.58 -3.21,-1.21 -2.46,-1.61 -1.70,-2.01 -0.86,-2.15 -0.01,-2.29 0.83,-2.16 1.67,-2.02 2.43,-1.62 3.19,-1.22 3.78,-0.60 4.37,0.01 4.74,0.79 5.10,1.56 5.19,2.42 5.29,3.27 5.11,4.11 4.92,4.94 4.48,5.68 4.04,6.42 3.39,6.97 2.74,7.53 1.94,7.85 1.15,8.17 0.29,8.22 -0.55,8.27 -1.38,8.04 -2.21,7.81 -2.92,7.33 -3.63,6.85 -4.15,6.17 -4.67,5.49 -4.95,4.68 -5.22,3.87 -5.22,3.01 -5.23,2.15 -4.96,1.34 -4.68,0.52 -4.17,-0.15 -3.65,-0.83 -2.94,-1.32 -2.23,-1.80 -1.41,-2.03 -0.58,-2.26 0.26,-2.22 1.12,-2.17 1.92,-1.86 2.72,-1.54 2.72,-1.54 2.71,-1.54 3.62,1.12 4.53,3.79 6.33,5.77 8.13,7.75 6.19,8.96 4.25,10.17 3.59,10.27 2.94,10.37 2.28,10.31 1.62,10.25 0.99,10.04 0.37,9.82 -0.18,9.46 -0.73,9.10 -1.19,8.62 -1.64,8.14 -1.97,7.56 -2.29,6.99 -2.47,6.35 -2.65,5.71 -2.67,5.05 -2.69,4.39 -2.55,3.74 -2.41,3.10 -2.12,2.50 -1.83,1.91 -1.41,1.40 -0.99,0.89 -0.45,0.50 0.07,0.11 0.68,-0.14 1.29,-0.39 3.21,0.44 5.12,1.29 3.54,2.60 1.96,3.92 4.87,4.47 7.78,5.02 6.05,2.29 4.33,-0.44 4.18,1.90 4.03,4.24 7.20,5.66 10.37,7.09 10.26,4.99 10.15,2.89 8.04,2.95 5.92,3.02 7.29,0.76 8.66,-1.48 9.26,-1.69 9.86,-1.90 10.49,-1.96 11.12,-2.03 11.74,-1.93 12.37,-1.84 12.96,-1.61 13.54,-1.37 14.06,-1.00 14.57,-0.63 14.98,-0.14 15.39,0.33 15.67,0.90 15.95,1.47 16.09,2.08 16.22,2.70 16.21,3.34 16.20,3.97 16.03,4.58 15.86,5.19 15.56,5.74 15.25,6.30 14.82,6.76 14.39,7.23 13.86,7.57 13.33,7.92 13.48,7.36 13.63,6.79 13.25,4.27 12.88,1.75 10.01,1.52 7.14,1.29 8.87,-0.63 10.59,-2.56 11.21,-2.63 11.82,-2.70 12.43,-2.62 13.05,-2.55 13.62,-2.32 14.20,-2.10 14.71,-1.75 15.21,-1.39 15.62,-0.93 16.03,-0.46 16.31,0.08 16.60,0.63 16.74,1.23 16.89,1.83 16.88,2.45 16.88,3.07 16.73,3.67 16.57,4.26 16.28,4.81 15.99,5.36 15.58,5.82 15.17,6.28 14.66,6.62 14.15,6.97 13.57,7.19 12.99,7.40 12.04,5.69 11.09,3.98 8.81,2.82 6.53,1.66 6.57,3.80 6.61,5.94 6.73,2.71 6.85,-0.50 8.19,-0.95 9.53,-1.39 10.08,-1.50 10.62,-1.62 11.18,-1.59 11.74,-1.57 12.28,-1.41 12.81,-1.26 13.30,-0.98 13.78,-0.70 14.18,-0.31 14.59,0.07 14.89,0.54 15.18,1.01 15.36,1.54 15.54,2.07 15.58,2.63 15.63,3.18 15.54,3.74 15.45,4.29 15.23,4.80 15.01,5.31 14.67,5.76 14.34,6.21 13.90,6.56 13.47,6.91 12.97,7.15 Z" fill="#4263eb" stroke="#4263eb" stroke-width="1.75" stroke-linejoin="round" stroke-linecap="round" pointer-events="none"/></g></g><g font-size="28" font-family="Caveat Brush" text-align="center" text-anchor="middle" fill="#ff2133" transform="translate(406.5, 273) rotate(0, 55.5, 19)"><text y="18.2" x="55.5">counter = 0</text></g><g transform="translate(896, 219) rotate(0, 70, 61)"><g id="5853c4fb-3d47-43a8-09c3-95ead86d2046_svg" class="tl-centered-g"><path d="M 132.97,33.71 Q 132.97,33.71 134.85,35.93 136.72,38.16 137.87,40.10 139.01,42.04 140.16,44.65 141.31,47.27 142.18,50.61 143.04,53.96 143.29,58.01 143.54,62.05 142.91,66.63 142.28,71.22 140.71,76.16 139.15,81.09 136.46,86.18 133.76,91.26 129.76,96.20 125.76,101.15 120.37,105.61 114.99,110.07 108.27,113.66 101.55,117.26 93.69,119.59 85.84,121.92 77.22,122.65 68.60,123.38 59.72,122.26 50.83,121.14 42.31,118.05 33.78,114.96 26.28,109.97 18.78,104.98 12.95,98.35 7.12,91.71 3.50,83.87 -0.11,76.02 -1.15,67.56 -2.20,59.09 -0.55,50.69 1.09,42.29 5.29,34.63 9.49,26.97 15.83,20.63 22.17,14.30 30.09,9.72 38.00,5.14 46.81,2.54 55.62,-0.05 64.64,-0.63 73.66,-1.21 82.27,0.07 90.87,1.36 98.56,4.23 106.25,7.11 112.68,11.21 119.10,15.30 124.07,20.20 129.04,25.11 132.53,30.42 136.02,35.73 138.13,41.08 140.23,46.44 141.14,51.56 142.04,56.68 141.97,61.34 141.89,66.00 141.17,70.06 140.45,74.12 139.30,77.52 138.14,80.91 136.78,83.60 135.41,86.29 134.05,88.28 132.68,90.28 130.68,92.44 128.69,94.60 128.68,94.60 128.68,94.59 128.68,94.59 128.67,94.59 129.98,92.03 131.30,89.48 132.28,87.39 133.27,85.30 134.34,82.66 135.41,80.02 136.39,76.80 137.37,73.58 138.02,69.77 138.67,65.96 138.68,61.61 138.69,57.25 137.85,52.46 137.02,47.68 135.08,42.63 133.14,37.59 129.87,32.56 126.61,27.54 121.92,22.86 117.23,18.19 111.13,14.26 105.03,10.32 97.68,7.54 90.34,4.75 82.10,3.48 73.86,2.21 65.21,2.73 56.57,3.25 48.13,5.69 39.70,8.14 32.14,12.45 24.58,16.77 18.53,22.72 12.48,28.67 8.48,35.84 4.47,43.02 2.85,50.88 1.23,58.74 2.15,66.68 3.06,74.62 6.42,82.03 9.78,89.44 15.27,95.76 20.76,102.08 27.89,106.86 35.02,111.64 43.16,114.61 51.31,117.58 59.81,118.66 68.31,119.75 76.55,119.05 84.79,118.34 92.27,116.11 99.74,113.87 106.09,110.43 112.44,107.00 117.46,102.76 122.48,98.52 126.13,93.86 129.77,89.19 132.11,84.45 134.45,79.71 135.66,75.16 136.86,70.62 137.16,66.48 137.47,62.35 137.33,58.71 137.18,55.07 136.82,51.92 136.46,48.77 135.46,44.05 134.46,39.34 133.71,36.53 Z" fill="#1d1d1d" stroke="#1d1d1d" stroke-width="3.5" pointer-events="none" stroke-linecap="round" stroke-linejoin="round"/></g><g font-size="48" font-family="Caveat Brush" text-align="left" fill="#1d1d1d" transform-origin="top left" transform="translate(62, 45)"><text y="31.20"/></g></g><g transform="translate(149, 247) rotate(0, 70, 61)"><g id="21cef877-545a-44d7-0bfb-fce38484bb9f_svg" class="tl-centered-g"><path d="M 101.19,6.30 Q 101.19,6.30 104.41,7.25 107.64,8.19 109.98,9.31 112.32,10.44 115.09,12.22 117.85,14.01 120.79,16.67 123.73,19.34 126.51,23.01 129.29,26.67 131.75,31.21 134.22,35.75 136.05,41.12 137.88,46.50 138.71,52.62 139.53,58.75 138.98,65.40 138.42,72.05 136.18,78.88 133.94,85.72 129.83,92.27 125.71,98.81 119.71,104.53 113.71,110.25 106.01,114.57 98.32,118.88 89.36,121.28 80.40,123.68 70.80,123.78 61.20,123.87 51.74,121.48 42.28,119.08 33.81,114.26 25.34,109.44 18.66,102.52 11.98,95.60 7.75,87.15 3.52,78.71 2.14,69.51 0.76,60.31 2.34,51.19 3.92,42.07 8.23,33.86 12.54,25.65 19.07,19.01 25.61,12.37 33.68,7.76 41.75,3.15 50.58,0.76 59.42,-1.61 68.29,-1.81 77.15,-2.02 85.41,-0.28 93.66,1.45 100.84,4.75 108.02,8.04 113.84,12.45 119.67,16.85 124.02,21.89 128.38,26.94 131.33,32.20 134.28,37.46 135.98,42.60 137.67,47.73 138.31,52.47 138.95,57.21 138.86,61.35 138.77,65.50 138.19,68.96 137.60,72.42 136.74,75.13 135.87,77.85 134.19,81.09 132.51,84.33 132.51,84.33 132.50,84.32 132.50,84.32 132.50,84.32 133.33,80.87 134.17,77.41 134.67,74.74 135.18,72.07 135.55,68.77 135.92,65.47 135.89,61.56 135.87,57.65 135.17,53.21 134.47,48.78 132.87,43.95 131.28,39.12 128.52,34.15 125.77,29.17 121.67,24.37 117.57,19.58 112.07,15.37 106.57,11.16 99.75,7.98 92.93,4.81 85.06,3.11 77.20,1.41 68.74,1.56 60.29,1.71 51.85,3.93 43.42,6.15 35.72,10.49 28.02,14.82 21.79,21.06 15.56,27.29 11.43,35.01 7.30,42.73 5.74,51.30 4.18,59.87 5.41,68.55 6.63,77.23 10.57,85.23 14.51,93.24 20.81,99.84 27.10,106.44 35.14,111.08 43.18,115.71 52.19,118.04 61.20,120.37 70.36,120.32 79.51,120.26 88.06,118.01 96.60,115.75 103.92,111.68 111.23,107.60 116.92,102.21 122.60,96.82 126.47,90.67 130.34,84.51 132.43,78.11 134.51,71.71 134.98,65.51 135.45,59.30 134.60,53.62 133.75,47.95 131.93,43.01 130.10,38.08 127.65,34.00 125.20,29.92 122.48,26.67 119.76,23.43 117.20,20.79 114.64,18.14 112.37,16.01 110.09,13.87 108.21,12.26 106.33,10.64 103.75,8.48 Z" fill="#788492" stroke="#788492" stroke-width="3.5" pointer-events="none" stroke-linecap="round" stroke-linejoin="round"/></g><g font-size="48" font-family="Caveat Brush" text-align="left" fill="#788492" transform-origin="top left" transform="translate(62, 45)"><text y="31.20"/></g></g><g transform="translate(16, 447) rotate(0, 70, 61)"><g id="9c9abe66-a42a-4e13-0d9e-a1cb5ce94ad9_svg" class="tl-centered-g"><path d="M 140.39,58.40 Q 140.39,58.40 141.00,61.21 141.60,64.02 141.51,69.14 141.43,74.26 140.65,77.70 139.87,81.14 138.21,84.97 136.56,88.80 133.88,92.80 131.21,96.80 127.58,100.83 123.95,104.86 119.25,108.65 114.54,112.44 108.73,115.67 102.91,118.90 96.07,121.23 89.22,123.56 81.54,124.65 73.87,125.73 65.71,125.27 57.54,124.80 49.37,122.58 41.19,120.37 33.56,116.31 25.92,112.26 19.45,106.47 12.97,100.68 8.23,93.41 3.49,86.14 0.97,77.86 -1.53,69.57 -1.51,60.86 -1.48,52.15 1.15,43.69 3.80,35.24 8.90,27.73 14.00,20.22 21.13,14.23 28.27,8.25 36.84,4.23 45.42,0.21 54.74,-1.60 64.06,-3.42 73.40,-3.02 82.74,-2.62 91.44,-0.17 100.14,2.26 107.67,6.43 115.19,10.60 121.16,16.06 127.13,21.51 131.35,27.77 135.58,34.03 138.03,40.62 140.49,47.22 141.32,53.72 142.15,60.22 141.59,66.31 141.02,72.39 139.39,77.81 137.75,83.24 135.36,87.87 132.96,92.51 130.12,96.29 127.29,100.07 124.33,103.05 121.37,106.03 118.51,108.25 115.66,110.48 113.08,112.02 110.50,113.57 108.35,114.54 106.20,115.51 104.60,116.06 103.01,116.60 103.00,116.60 103.00,116.59 103.00,116.59 103.00,116.58 104.37,115.64 105.73,114.70 107.60,113.37 109.47,112.04 111.77,110.30 114.07,108.55 116.69,106.28 119.30,104.02 122.03,101.12 124.76,98.21 127.37,94.59 129.97,90.96 132.22,86.59 134.47,82.23 136.03,77.14 137.60,72.05 138.17,66.34 138.73,60.63 138.00,54.51 137.26,48.39 134.98,42.16 132.71,35.93 128.75,29.98 124.79,24.03 119.14,18.81 113.50,13.59 106.34,9.58 99.18,5.57 90.87,3.19 82.56,0.80 73.63,0.38 64.69,-0.03 55.77,1.65 46.85,3.35 38.65,7.13 30.45,10.92 23.64,16.56 16.83,22.20 11.96,29.26 7.09,36.33 4.53,44.27 1.98,52.22 1.89,60.41 1.81,68.61 4.13,76.44 6.45,84.27 10.90,91.17 15.35,98.07 21.49,103.59 27.62,109.12 34.89,113.00 42.16,116.87 49.96,118.99 57.77,121.11 65.55,121.54 73.34,121.96 80.64,120.90 87.95,119.83 94.42,117.57 100.89,115.30 106.32,112.17 111.75,109.04 116.06,105.39 120.36,101.74 123.55,97.87 126.75,94.01 128.94,90.20 131.12,86.40 132.68,82.93 134.23,79.46 135.37,76.41 136.51,73.36 137.81,68.69 139.12,64.01 139.75,61.21 Z" fill="#c6cbd1" stroke="#c6cbd1" stroke-width="3.5" pointer-events="none" stroke-linecap="round" stroke-linejoin="round"/></g><g font-size="48" font-family="Caveat Brush" text-align="left" fill="#c6cbd1" transform-origin="top left" transform="translate(62, 45)"><text y="31.20"/></g></g><g transform="translate(666, 418) rotate(0, 70, 61)"><g id="99ae41b7-0e27-4e76-1423-9af6e4676a8e_svg" class="tl-centered-g"><path d="M 27.81,109.11 Q 27.81,109.11 25.21,108.21 22.62,107.31 18.56,104.87 14.49,102.43 12.09,100.35 9.69,98.28 7.34,95.48 4.98,92.68 2.92,89.13 0.86,85.58 -0.72,81.38 -2.32,77.18 -3.23,72.42 -4.15,67.67 -4.19,62.47 -4.22,57.28 -3.14,51.81 -2.06,46.34 0.32,40.83 2.71,35.32 6.51,30.04 10.31,24.77 15.53,20.05 20.74,15.34 27.26,11.51 33.77,7.68 41.34,5.05 48.92,2.41 57.19,1.21 65.47,0.01 74.01,0.40 82.54,0.80 90.83,2.84 99.13,4.88 106.67,8.49 114.21,12.10 120.53,17.08 126.85,22.06 131.57,28.12 136.28,34.18 139.14,40.93 142.00,47.69 142.88,54.71 143.76,61.73 142.72,68.60 141.67,75.46 138.89,81.78 136.10,88.10 131.90,93.57 127.69,99.05 122.44,103.49 117.19,107.93 111.28,111.25 105.37,114.57 99.19,116.78 93.00,119.00 86.86,120.19 80.73,121.39 74.90,121.71 69.07,122.04 63.75,121.65 58.43,121.27 53.74,120.34 49.05,119.42 45.06,118.19 41.06,116.95 37.77,115.55 34.49,114.16 31.91,112.72 29.33,111.28 27.42,109.93 25.51,108.59 23.41,106.67 21.31,104.75 21.31,104.75 21.32,104.74 21.32,104.74 21.32,104.73 23.81,106.00 26.30,107.26 28.33,108.25 30.36,109.24 32.94,110.41 35.53,111.57 38.73,112.80 41.94,114.03 45.79,115.14 49.65,116.25 54.16,117.06 58.68,117.87 63.78,118.24 68.89,118.60 74.49,118.31 80.08,118.01 85.96,116.88 91.85,115.76 97.78,113.66 103.70,111.56 109.34,108.42 114.98,105.28 119.98,101.11 124.98,96.93 128.98,91.80 132.97,86.68 135.62,80.79 138.27,74.90 139.30,68.51 140.34,62.11 139.57,55.55 138.80,48.99 136.17,42.63 133.53,36.27 129.10,30.52 124.67,24.77 118.68,20.00 112.68,15.23 105.48,11.75 98.27,8.27 90.32,6.30 82.36,4.32 74.17,3.93 65.97,3.53 58.03,4.68 50.09,5.82 42.86,8.34 35.62,10.86 29.44,14.50 23.26,18.14 18.36,22.59 13.46,27.05 9.95,31.99 6.43,36.93 4.29,42.04 2.15,47.16 1.27,52.17 0.39,57.19 0.59,61.89 0.79,66.59 1.87,70.81 2.94,75.02 4.59,78.69 6.24,82.36 8.20,85.47 10.16,88.59 12.14,91.26 14.12,93.93 15.99,96.21 17.87,98.48 20.96,101.79 24.04,105.11 25.93,107.10 Z" fill="#ffc936" stroke="#ffc936" stroke-width="3.5" pointer-events="none" stroke-linecap="round" stroke-linejoin="round"/></g><g font-size="48" font-family="Caveat Brush" text-align="left" fill="#ffc936" transform-origin="top left" transform="translate(62, 45)"><text y="31.20"/></g></g><g transform="translate(722, 16) rotate(0, 70, 60.5)"><g id="d188d40b-4e65-4730-1930-42370dcfe675_svg" class="tl-centered-g"><path d="M 2.59,45.98 Q 2.59,45.98 2.84,43.06 3.10,40.15 3.70,37.93 4.30,35.71 5.42,32.98 6.54,30.25 8.44,27.15 10.33,24.05 13.23,20.85 16.13,17.64 20.04,14.54 23.94,11.43 28.79,8.56 33.64,5.69 39.45,3.35 45.27,1.01 51.97,-0.46 58.67,-1.95 66.05,-2.26 73.43,-2.58 81.16,-1.45 88.89,-0.32 96.52,2.42 104.14,5.18 111.13,9.63 118.11,14.07 123.87,20.11 129.63,26.15 133.60,33.50 137.57,40.85 139.29,49.05 141.01,57.26 140.20,65.72 139.39,74.19 136.00,82.24 132.61,90.29 126.86,97.25 121.11,104.21 113.45,109.53 105.80,114.84 96.86,118.10 87.93,121.36 78.44,122.38 68.96,123.39 59.68,122.17 50.39,120.96 41.97,117.73 33.54,114.50 26.52,109.63 19.49,104.76 14.21,98.72 8.93,92.69 5.55,86.00 2.17,79.31 0.66,72.46 -0.84,65.61 -0.66,59.03 -0.49,52.44 1.06,46.45 2.61,40.46 5.19,35.27 7.78,30.07 11.01,25.77 14.25,21.47 17.81,18.09 21.37,14.71 24.95,12.16 28.52,9.62 31.87,7.81 35.21,5.99 38.16,4.81 41.11,3.63 43.53,2.96 45.95,2.29 48.86,1.87 51.77,1.45 51.77,1.45 51.77,1.46 51.77,1.46 51.77,1.47 49.12,2.60 46.47,3.74 44.26,4.73 42.04,5.72 39.31,7.07 36.58,8.42 33.45,10.26 30.32,12.10 26.98,14.59 23.64,17.07 20.31,20.31 16.97,23.54 13.91,27.58 10.85,31.62 8.39,36.49 5.93,41.35 4.43,46.96 2.93,52.57 2.72,58.74 2.52,64.91 3.88,71.35 5.25,77.79 8.40,84.12 11.54,90.45 16.51,96.20 21.48,101.95 28.14,106.62 34.81,111.30 42.84,114.42 50.87,117.55 59.75,118.75 68.63,119.96 77.70,119.04 86.78,118.11 95.32,115.05 103.86,111.98 111.17,106.98 118.47,101.97 123.96,95.43 129.44,88.89 132.68,81.34 135.93,73.80 136.75,65.86 137.57,57.92 136.00,50.20 134.43,42.48 130.72,35.53 127.01,28.59 121.58,22.85 116.14,17.12 109.51,12.89 102.87,8.66 95.60,6.05 88.33,3.43 80.97,2.39 73.60,1.36 66.59,1.72 59.58,2.08 53.27,3.58 46.95,5.08 41.55,7.42 36.14,9.75 31.75,12.60 27.35,15.46 23.97,18.54 20.58,21.63 17.98,24.59 15.38,27.55 13.31,30.18 11.24,32.81 8.47,36.91 5.70,41.02 4.16,43.50 Z" fill="#0e98ad" stroke="#0e98ad" stroke-width="3.5" pointer-events="none" stroke-linecap="round" stroke-linejoin="round"/></g><g font-size="48" font-family="Caveat Brush" text-align="left" fill="#0e98ad" transform-origin="top left" transform="translate(62, 44.5)"><text y="31.20"/></g></g><g transform="translate(105, 50) rotate(0, 70, 61)"><g id="19c92d0f-43b1-4841-12f7-d1795ad5d342_svg" class="tl-centered-g"><path d="M 3.43,78.88 Q 3.43,78.88 1.94,76.23 0.46,73.57 -0.31,71.33 -1.08,69.10 -1.68,66.15 -2.28,63.19 -2.36,59.52 -2.45,55.86 -1.66,51.60 -0.87,47.35 0.94,42.72 2.76,38.09 5.67,33.30 8.59,28.50 12.80,23.82 17.01,19.15 22.61,14.95 28.20,10.76 35.15,7.47 42.09,4.17 50.16,2.19 58.23,0.21 67.05,-0.07 75.86,-0.36 84.85,1.30 93.84,2.97 102.32,6.72 110.80,10.46 118.01,16.19 125.22,21.92 130.44,29.32 135.67,36.71 138.32,45.23 140.97,53.74 140.68,62.66 140.39,71.58 137.12,80.09 133.85,88.60 127.88,95.92 121.91,103.24 113.82,108.73 105.73,114.22 96.29,117.47 86.85,120.72 76.92,121.56 67.00,122.40 57.42,120.91 47.84,119.43 39.33,115.91 30.81,112.39 23.89,107.30 16.97,102.20 11.96,96.06 6.94,89.92 3.91,83.27 0.88,76.62 -0.26,69.97 -1.40,63.31 -0.94,57.06 -0.47,50.80 1.25,45.23 2.98,39.66 5.57,34.93 8.17,30.20 11.27,26.39 14.37,22.58 17.61,19.64 20.85,16.71 23.95,14.56 27.05,12.41 29.81,10.97 32.58,9.52 34.84,8.66 37.10,7.79 38.73,7.34 40.36,6.90 40.36,6.90 40.36,6.91 40.37,6.91 40.37,6.92 38.94,7.78 37.52,8.64 35.52,9.88 33.52,11.12 31.02,12.78 28.53,14.44 25.68,16.64 22.83,18.83 19.85,21.71 16.86,24.58 14.00,28.21 11.14,31.85 8.70,36.27 6.25,40.70 4.60,45.89 2.95,51.09 2.46,56.93 1.98,62.77 3.00,69.00 4.03,75.24 6.83,81.50 9.63,87.77 14.33,93.62 19.04,99.46 25.60,104.34 32.16,109.23 40.28,112.63 48.40,116.03 57.57,117.50 66.74,118.97 76.25,118.21 85.76,117.45 94.79,114.40 103.82,111.35 111.55,106.18 119.27,101.02 124.96,94.16 130.65,87.30 133.79,79.34 136.94,71.39 137.28,63.04 137.63,54.70 135.20,46.69 132.78,38.68 127.88,31.67 122.99,24.66 116.16,19.18 109.32,13.71 101.24,10.11 93.16,6.52 84.56,4.91 75.97,3.30 67.54,3.59 59.12,3.87 51.44,5.78 43.76,7.69 37.20,10.86 30.65,14.02 25.44,18.02 20.23,22.01 16.41,26.44 12.59,30.86 10.07,35.35 7.56,39.84 6.16,44.11 4.77,48.38 4.11,52.21 3.44,56.04 3.14,59.38 2.84,62.71 2.90,67.76 2.96,72.81 3.21,75.84 Z" fill="#36b24d" stroke="#36b24d" stroke-width="3.5" pointer-events="none" stroke-linecap="round" stroke-linejoin="round"/></g><g font-size="48" font-family="Caveat Brush" text-align="left" fill="#36b24d" transform-origin="top left" transform="translate(62, 45)"><text y="31.20"/></g></g><g transform="translate(288.99, 305.44) rotate(0, 54.75, 0.78)"><g id="a6527170-0909-451e-1767-23341e0191bd_svg" class="tl-centered-g"><defs><mask id="a6527170-0909-451e-1767-23341e0191bd_clip"><rect x="-100" y="-100" width="309.51" height="201.56" fill="white"/><rect x="54.75" y="0.78" width="0" height="0" rx="3.42" ry="3.42" fill="black" opacity="1"/></mask></defs><g pointer-events="none" opacity="1" mask=""><path d="M -0.01,0.61 Q -0.01,0.61 13.42,0.45 26.86,0.30 40.30,0.13 53.74,-0.02 67.18,-0.20 80.62,-0.37 94.06,-0.55 107.49,-0.72 107.62,-0.70 107.74,-0.69 107.85,-0.63 107.95,-0.57 108.04,-0.49 108.12,-0.40 108.18,-0.29 108.23,-0.18 108.25,-0.06 108.26,0.05 108.24,0.17 108.21,0.29 108.15,0.40 108.09,0.50 108.00,0.59 107.90,0.67 107.79,0.71 107.68,0.76 107.56,0.77 107.43,0.78 107.32,0.74 107.20,0.71 107.10,0.65 106.99,0.58 106.92,0.48 106.84,0.39 106.80,0.27 106.76,0.16 106.76,0.03 106.76,-0.08 106.80,-0.19 106.83,-0.31 106.91,-0.41 106.98,-0.51 107.08,-0.58 107.18,-0.65 107.30,-0.68 107.41,-0.72 107.54,-0.71 107.66,-0.71 107.77,-0.66 107.89,-0.62 107.98,-0.54 108.07,-0.46 108.14,-0.36 108.20,-0.26 108.23,-0.14 108.26,-0.02 108.25,0.09 108.24,0.22 108.19,0.33 108.14,0.44 108.05,0.53 107.97,0.62 107.86,0.68 107.76,0.74 107.64,0.76 107.52,0.78 107.52,0.78 107.52,0.78 94.08,0.98 80.64,1.19 67.20,1.40 53.76,1.61 40.32,1.83 26.89,2.05 13.45,2.27 0.01,2.50 -0.09,2.49 -0.21,2.48 -0.32,2.44 -0.42,2.40 -0.52,2.33 -0.61,2.27 -0.69,2.19 -0.77,2.10 -0.82,2.00 -0.87,1.90 -0.90,1.79 -0.93,1.68 -0.93,1.57 -0.94,1.45 -0.91,1.34 -0.88,1.23 -0.83,1.13 -0.78,1.03 -0.71,0.94 -0.63,0.86 -0.54,0.79 -0.45,0.72 -0.34,0.68 -0.23,0.64 -0.12,0.62 Z" fill="#788492" stroke="#788492" stroke-width="2.11" stroke-dasharray="none" stroke-dashoffset="none" stroke-linecap="round" stroke-linejoin="round" pointer-events="stroke"/><g><path d="M 95.54,-7.801820124605237 L 109.51,0 95.76,8.196556699688447" fill="none" stroke="#788492" stroke-width="4.23" stroke-linecap="round" stroke-linejoin="round" pointer-events="none"/></g></g></g><g font-size="28" font-family="Caveat Brush" text-align="left" fill="#788492" transform-origin="top left" transform="translate(46.755, -15.22)"><text y="18.2"/></g></g><g transform="translate(240.08999999999992, 147.57) rotate(0, 78.46, 58.79)"><g id="3e304768-3110-4d54-0bfc-c2b22c2f1593_svg" class="tl-centered-g"><defs><mask id="3e304768-3110-4d54-0bfc-c2b22c2f1593_clip"><rect x="-100" y="-100" width="356.92" height="317.59" fill="white"/><rect x="101.92" y="27.71" width="0" height="0" rx="4" ry="4" fill="black" opacity="1"/></mask></defs><g pointer-events="none" opacity="1" mask=""><path d="M -12.14,1.37 Q -12.14,1.37 -10.36,0.71 -8.57,0.06 -5.99,-0.36 -3.42,-0.79 0.84,-1.30 5.11,-1.81 11.53,-2.09 17.94,-2.36 26.88,-1.79 35.81,-1.22 47.47,1.25 59.13,3.73 73.22,9.68 87.31,15.64 101.89,26.34 116.47,37.04 126.40,48.74 136.33,60.43 142.21,70.85 148.09,81.27 151.32,89.67 154.55,98.07 156.20,104.31 157.85,110.54 158.64,114.80 159.44,119.05 159.79,121.66 160.14,124.27 160.35,126.22 160.55,128.16 160.51,128.53 160.48,128.89 160.33,129.22 160.18,129.55 159.93,129.82 159.69,130.09 159.37,130.26 159.05,130.44 158.69,130.50 158.33,130.56 157.97,130.51 157.61,130.45 157.29,130.29 156.96,130.12 156.71,129.86 156.46,129.60 156.30,129.27 156.14,128.94 156.10,128.58 156.06,128.22 156.13,127.86 156.20,127.51 156.39,127.19 156.57,126.88 156.85,126.64 157.12,126.40 157.46,126.26 157.79,126.12 158.16,126.10 158.52,126.07 158.87,126.17 159.22,126.26 159.53,126.46 159.83,126.66 160.06,126.95 160.28,127.24 160.40,127.58 160.52,127.92 160.52,128.29 160.53,128.65 160.42,129.00 160.30,129.34 160.09,129.64 159.87,129.93 159.57,130.14 159.27,130.34 158.92,130.45 158.57,130.55 158.21,130.53 157.85,130.52 157.51,130.39 157.17,130.25 156.89,130.02 156.61,129.79 156.42,129.48 156.22,129.17 156.14,128.82 156.06,128.46 156.06,128.46 156.06,128.46 155.87,126.67 155.69,124.88 155.35,122.38 155.01,119.88 154.26,115.78 153.50,111.69 151.92,105.68 150.34,99.68 147.25,91.57 144.16,83.46 138.52,73.39 132.88,63.32 123.33,51.98 113.78,40.65 99.65,30.21 85.52,19.77 71.85,13.95 58.18,8.12 46.85,5.69 35.52,3.26 26.82,2.69 18.13,2.12 11.88,2.39 5.64,2.65 1.48,3.14 -2.67,3.63 -5.18,4.05 -7.68,4.47 -9.58,4.56 -11.49,4.64 -11.69,4.66 -11.89,4.68 -12.09,4.64 -12.29,4.61 -12.47,4.53 -12.66,4.45 -12.82,4.33 -12.98,4.21 -13.10,4.05 -13.23,3.89 -13.32,3.71 -13.40,3.53 -13.44,3.33 -13.48,3.13 -13.47,2.93 -13.46,2.73 -13.41,2.54 -13.35,2.34 -13.25,2.17 -13.15,2.00 -13.01,1.85 -12.87,1.71 -12.70,1.60 -12.53,1.49 -12.34,1.43 Z" fill="#36b24d" stroke="#36b24d" stroke-width="0" stroke-dasharray="none" stroke-dashoffset="none" stroke-linecap="round" stroke-linejoin="round" pointer-events="none"/><g><path d="M 164.74,114.79639431267209 L 158.41,129.49 148.85,116.65926937335118" fill="none" stroke="#36b24d" stroke-width="4.23" stroke-linecap="round" stroke-linejoin="round" pointer-events="none"/></g></g></g><g font-size="28" font-family="Caveat Brush" text-align="left" fill="#36b24d" transform-origin="top left" transform="translate(70.46041372718217, 42.79)"><text y="18.2"/></g></g><g transform="translate(163.95000000000005, 334.95) rotate(0, 136.77, 72.23)"><g id="744a939f-59c7-44de-3157-6f837df23489_svg" class="tl-centered-g"><defs><mask id="744a939f-59c7-44de-3157-6f837df23489_clip"><rect x="-100" y="-100" width="473.54" height="344.46" fill="white"/><rect x="157.56" y="111.38" width="0" height="0" rx="4" ry="4" fill="black" opacity="1"/></mask></defs><g pointer-events="none" opacity="1" mask=""><path d="M -17.75,139.85 Q -17.75,139.85 -15.12,139.94 -12.48,140.04 -10.01,140.32 -7.54,140.61 -3.85,140.96 -0.16,141.30 4.99,141.63 10.16,141.96 17.04,142.11 23.92,142.26 32.76,141.96 41.59,141.67 52.57,140.53 63.55,139.40 76.79,136.88 90.03,134.35 105.51,129.71 120.99,125.06 138.46,117.37 155.94,109.69 172.23,99.76 188.51,89.82 201.16,79.79 213.81,69.76 223.43,60.36 233.06,50.96 240.26,42.61 247.45,34.27 252.74,27.20 258.02,20.14 261.84,14.42 265.65,8.70 268.33,4.29 271.01,-0.11 272.83,-3.33 274.66,-6.55 275.83,-8.73 277.00,-10.91 278.19,-13.21 279.37,-15.51 279.58,-15.80 279.79,-16.10 280.09,-16.31 280.38,-16.53 280.73,-16.64 281.07,-16.74 281.44,-16.74 281.80,-16.73 282.15,-16.60 282.49,-16.48 282.77,-16.25 283.06,-16.03 283.25,-15.72 283.45,-15.42 283.54,-15.06 283.63,-14.71 283.60,-14.35 283.58,-13.98 283.43,-13.65 283.29,-13.31 283.05,-13.04 282.81,-12.77 282.49,-12.59 282.18,-12.41 281.82,-12.34 281.46,-12.27 281.10,-12.32 280.74,-12.36 280.41,-12.52 280.09,-12.68 279.83,-12.94 279.57,-13.20 279.41,-13.52 279.24,-13.85 279.19,-14.21 279.14,-14.57 279.21,-14.92 279.27,-15.28 279.45,-15.60 279.63,-15.92 279.90,-16.16 280.17,-16.41 280.50,-16.55 280.84,-16.70 281.20,-16.73 281.56,-16.76 281.92,-16.67 282.27,-16.59 282.58,-16.39 282.88,-16.20 283.11,-15.92 283.34,-15.63 283.47,-15.29 283.60,-14.95 283.61,-14.59 283.62,-14.22 283.52,-13.88 283.41,-13.53 283.41,-13.53 283.41,-13.53 282.19,-11.15 280.97,-8.78 279.77,-6.56 278.57,-4.34 276.72,-1.06 274.86,2.21 272.13,6.70 269.40,11.19 265.51,17.01 261.63,22.83 256.24,30.02 250.86,37.20 243.53,45.69 236.21,54.17 226.41,63.73 216.60,73.29 203.73,83.48 190.86,93.67 174.30,103.73 157.75,113.80 140.02,121.59 122.28,129.37 106.58,134.07 90.88,138.78 77.45,141.32 64.02,143.87 52.88,145.02 41.74,146.16 32.78,146.46 23.83,146.75 16.85,146.60 9.87,146.45 4.64,146.12 -0.59,145.79 -4.33,145.43 -8.07,145.08 -10.58,144.79 -13.09,144.49 -15.65,143.89 -18.22,143.28 -18.42,143.22 -18.62,143.17 -18.80,143.07 -18.98,142.97 -19.14,142.83 -19.29,142.69 -19.41,142.52 -19.52,142.35 -19.60,142.15 -19.67,141.96 -19.69,141.75 -19.71,141.54 -19.68,141.34 -19.66,141.13 -19.58,140.94 -19.50,140.74 -19.38,140.57 -19.26,140.40 -19.10,140.27 -18.95,140.13 -18.76,140.04 -18.58,139.94 -18.37,139.90 -18.17,139.85 -17.96,139.85 Z" fill="#c6cbd1" stroke="#c6cbd1" stroke-width="0" stroke-dasharray="none" stroke-dashoffset="none" stroke-linecap="round" stroke-linejoin="round" pointer-events="none"/><g><path d="M 268.62,-7.332153966457249 L 282.11,-15.95 282.83,0.033662727215185484" fill="none" stroke="#c6cbd1" stroke-width="4.23" stroke-linecap="round" stroke-linejoin="round" pointer-events="none"/></g></g></g><g font-size="28" font-family="Caveat Brush" text-align="left" fill="#c6cbd1" transform-origin="top left" transform="translate(128.7735249208448, 56.23)"><text y="18.2"/></g></g><g transform="translate(525.5, 283.05) rotate(0, 185.29, 8.12)"><g id="cd401ff7-bc4f-4605-1933-980145909419_svg" class="tl-centered-g"><defs><mask id="cd401ff7-bc4f-4605-1933-980145909419_clip"><rect x="-100" y="-100" width="570.58" height="216.25" fill="white"/><rect x="185.29" y="8.12" width="0" height="0" rx="4" ry="4" fill="black" opacity="1"/></mask></defs><g pointer-events="none" opacity="1" mask=""><path d="M 370.62,0.88 Q 370.62,0.88 324.55,2.87 278.47,4.85 232.40,6.84 186.32,8.83 140.25,10.83 94.17,12.83 48.10,14.83 2.02,16.84 1.91,16.82 1.80,16.81 1.71,16.76 1.61,16.72 1.53,16.64 1.45,16.56 1.40,16.47 1.35,16.37 1.33,16.26 1.31,16.15 1.33,16.04 1.35,15.93 1.40,15.84 1.46,15.74 1.54,15.67 1.62,15.59 1.72,15.55 1.82,15.50 1.93,15.49 2.04,15.48 2.14,15.50 2.25,15.53 2.34,15.59 2.44,15.64 2.51,15.73 2.58,15.81 2.62,15.92 2.66,16.02 2.66,16.13 2.67,16.24 2.64,16.34 2.61,16.45 2.54,16.54 2.48,16.63 2.39,16.70 2.30,16.76 2.20,16.79 2.10,16.83 1.99,16.83 1.88,16.83 1.77,16.79 1.67,16.75 1.58,16.69 1.50,16.62 1.43,16.53 1.37,16.44 1.35,16.33 1.32,16.22 1.32,16.11 1.33,16.00 1.37,15.90 1.42,15.80 1.49,15.72 1.56,15.64 1.65,15.58 1.75,15.52 1.86,15.50 1.96,15.48 1.96,15.48 1.96,15.48 48.04,13.44 94.11,11.41 140.18,9.36 186.26,7.32 232.33,5.27 278.40,3.22 324.47,1.16 370.55,-0.88 370.65,-0.88 370.76,-0.87 370.86,-0.83 370.96,-0.80 371.05,-0.74 371.15,-0.69 371.22,-0.61 371.29,-0.53 371.35,-0.44 371.40,-0.35 371.43,-0.24 371.46,-0.14 371.47,-0.03 371.47,0.06 371.45,0.17 371.43,0.27 371.38,0.37 371.34,0.47 371.27,0.55 371.20,0.63 371.12,0.70 371.03,0.76 370.93,0.81 370.84,0.85 370.73,0.87 Z" fill="#1d1d1d" stroke="#1d1d1d" stroke-width="2.11" stroke-dasharray="none" stroke-dashoffset="none" stroke-linecap="round" stroke-linejoin="round" pointer-events="stroke"/><g><path d="M 14.19,23.635313877503663 L 0,16.25 13.49,7.650673608220346" fill="none" stroke="#1d1d1d" stroke-width="4.23" stroke-linecap="round" stroke-linejoin="round" pointer-events="none"/></g></g></g><g font-size="28" font-family="Caveat Brush" text-align="left" fill="#1d1d1d" transform-origin="top left" transform="translate(177.295, -7.875)"><text y="18.2"/></g></g><g transform="translate(504.43000000000006, 99.92) rotate(0, 108.16, 74.36)"><g id="f3bd1b38-3b54-47a1-3880-27290ce73f6c_svg" class="tl-centered-g"><defs><mask id="f3bd1b38-3b54-47a1-3880-27290ce73f6c_clip"><rect x="-100" y="-100" width="416.33" height="348.73" fill="white"/><rect x="74.99" y="27.31" width="0" height="0" rx="4" ry="4" fill="black" opacity="1"/></mask></defs><g pointer-events="none" opacity="1" mask=""><path d="M 231.07,14.60 Q 231.07,14.60 229.79,14.37 228.50,14.15 226.89,13.52 225.28,12.89 222.60,11.93 219.92,10.97 215.85,9.71 211.79,8.45 206.03,7.05 200.27,5.65 192.48,4.42 184.69,3.20 174.58,2.73 164.47,2.25 151.89,3.39 139.30,4.54 124.40,8.50 109.49,12.46 92.97,20.75 76.44,29.04 62.19,40.77 47.93,52.51 38.28,64.50 28.64,76.49 22.50,87.50 16.37,98.51 12.71,107.92 9.05,117.32 7.01,124.91 4.97,132.50 3.91,138.31 2.86,144.12 2.36,148.32 1.86,152.52 1.64,155.34 1.43,158.17 1.31,161.10 1.19,164.03 1.13,164.39 1.07,164.75 0.90,165.07 0.73,165.39 0.47,165.64 0.21,165.90 -0.11,166.05 -0.44,166.20 -0.80,166.25 -1.16,166.29 -1.52,166.21 -1.88,166.13 -2.19,165.95 -2.50,165.76 -2.74,165.49 -2.98,165.21 -3.11,164.87 -3.25,164.54 -3.27,164.17 -3.29,163.81 -3.20,163.46 -3.10,163.11 -2.90,162.80 -2.70,162.50 -2.41,162.28 -2.12,162.06 -1.77,161.94 -1.43,161.82 -1.07,161.82 -0.70,161.82 -0.36,161.93 -0.01,162.05 0.27,162.27 0.56,162.48 0.77,162.78 0.97,163.08 1.07,163.43 1.17,163.78 1.15,164.15 1.14,164.51 1.00,164.85 0.87,165.19 0.64,165.47 0.40,165.75 0.09,165.94 -0.21,166.13 -0.57,166.21 -0.92,166.29 -1.28,166.25 -1.65,166.21 -1.98,166.06 -2.31,165.91 -2.57,165.66 -2.84,165.41 -3.01,165.09 -3.18,164.77 -3.24,164.41 -3.30,164.05 -3.30,164.05 -3.30,164.05 -3.18,160.94 -3.05,157.82 -2.82,154.91 -2.60,151.99 -2.08,147.65 -1.56,143.31 -0.46,137.32 0.62,131.33 2.74,123.51 4.86,115.69 8.65,106.00 12.44,96.32 18.79,85.00 25.13,73.68 35.10,61.36 45.06,49.04 59.73,37.04 74.41,25.03 91.36,16.57 108.32,8.11 123.60,4.08 138.89,0.05 151.78,-1.08 164.68,-2.23 175.03,-1.74 185.38,-1.24 193.36,0.02 201.34,1.28 207.23,2.72 213.12,4.16 217.28,5.45 221.43,6.74 224.17,7.72 226.91,8.70 228.56,9.34 230.21,9.98 231.28,10.73 232.36,11.47 232.54,11.57 232.72,11.67 232.86,11.81 233.01,11.95 233.12,12.12 233.24,12.29 233.30,12.48 233.37,12.68 233.39,12.88 233.41,13.08 233.38,13.28 233.35,13.49 233.27,13.67 233.19,13.86 233.07,14.03 232.95,14.19 232.79,14.32 232.64,14.45 232.46,14.54 232.27,14.63 232.07,14.68 231.87,14.72 231.67,14.72 231.46,14.71 231.27,14.66 Z" fill="#0e98ad" stroke="#0e98ad" stroke-width="0" stroke-dasharray="none" stroke-dashoffset="none" stroke-linecap="round" stroke-linejoin="round" pointer-events="none"/><g><path d="M 7.55,151.59964027693016 L -1.08,165.07 -8.428573738819198,150.85738363266157" fill="none" stroke="#0e98ad" stroke-width="4.23" stroke-linecap="round" stroke-linejoin="round" pointer-events="none"/></g></g></g><g font-size="28" font-family="Caveat Brush" text-align="left" fill="#0e98ad" transform-origin="top left" transform="translate(100.16733098825975, 58.36)"><text y="18.2"/></g></g><g transform="translate(500.46000000000004, 332.4) rotate(0, 84.17, 62.15)"><g id="43a06f5f-3a7c-4bde-3cef-23f68e4f25f1_svg" class="tl-centered-g"><defs><mask id="43a06f5f-3a7c-4bde-3cef-23f68e4f25f1_clip"><rect x="-100" y="-100" width="368.35" height="324.31" fill="white"/><rect x="52.85" y="103.32" width="0" height="0" rx="4" ry="4" fill="black" opacity="1"/></mask></defs><g pointer-events="none" opacity="1" mask=""><path d="M 181.22,110.50 Q 181.22,110.50 178.71,112.13 176.20,113.76 172.83,115.31 169.46,116.87 164.69,118.66 159.92,120.45 153.81,122.13 147.69,123.81 140.31,124.96 132.94,126.12 124.53,126.34 116.12,126.56 107.00,125.51 97.89,124.45 88.50,121.87 79.12,119.28 69.96,115.08 60.80,110.89 52.36,105.19 43.91,99.48 36.59,92.56 29.27,85.63 23.36,77.89 17.45,70.15 13.06,62.08 8.67,54.02 5.73,46.11 2.78,38.21 1.10,30.93 -0.58,23.64 -1.30,17.31 -2.03,10.98 -2.14,5.87 -2.25,0.76 -2.07,-2.96 -1.89,-6.70 -1.57,-9.73 -1.25,-12.77 -1.15,-13.12 -1.05,-13.47 -0.84,-13.77 -0.63,-14.07 -0.34,-14.29 -0.04,-14.50 0.29,-14.61 0.64,-14.73 1.00,-14.72 1.37,-14.72 1.71,-14.60 2.05,-14.48 2.34,-14.25 2.63,-14.03 2.83,-13.72 3.03,-13.42 3.12,-13.07 3.21,-12.72 3.19,-12.35 3.17,-11.99 3.03,-11.65 2.89,-11.32 2.65,-11.04 2.41,-10.77 2.10,-10.58 1.78,-10.40 1.43,-10.33 1.07,-10.25 0.71,-10.30 0.35,-10.34 0.02,-10.50 -0.30,-10.65 -0.56,-10.91 -0.82,-11.16 -0.99,-11.49 -1.16,-11.81 -1.21,-12.17 -1.26,-12.53 -1.20,-12.89 -1.14,-13.25 -0.96,-13.57 -0.79,-13.89 -0.52,-14.13 -0.25,-14.38 0.07,-14.53 0.40,-14.68 0.76,-14.71 1.12,-14.75 1.48,-14.66 1.83,-14.58 2.14,-14.39 2.45,-14.20 2.69,-13.92 2.92,-13.64 3.05,-13.30 3.18,-12.96 3.19,-12.59 3.21,-12.23 3.21,-12.23 3.21,-12.23 2.90,-9.35 2.59,-6.47 2.41,-2.90 2.23,0.67 2.33,5.57 2.43,10.47 3.11,16.55 3.80,22.63 5.40,29.64 7.01,36.66 9.81,44.27 12.62,51.87 16.83,59.66 21.04,67.44 26.71,74.91 32.38,82.38 39.41,89.07 46.44,95.77 54.56,101.28 62.69,106.80 71.51,110.88 80.33,114.95 89.38,117.46 98.42,119.98 107.22,121.02 116.01,122.07 124.13,121.87 132.25,121.67 139.38,120.57 146.50,119.46 152.42,117.85 158.35,116.24 162.96,114.51 167.57,112.78 170.84,111.28 174.11,109.77 176.87,108.62 179.63,107.47 179.82,107.40 180.01,107.33 180.22,107.30 180.42,107.28 180.63,107.30 180.83,107.32 181.02,107.40 181.22,107.47 181.39,107.59 181.56,107.70 181.69,107.86 181.83,108.01 181.93,108.19 182.02,108.38 182.07,108.58 182.12,108.78 182.12,108.98 182.12,109.19 182.07,109.39 182.02,109.59 181.93,109.77 181.83,109.95 181.70,110.11 181.56,110.26 181.39,110.38 Z" fill="#ffc936" stroke="#ffc936" stroke-width="0" stroke-dasharray="none" stroke-dashoffset="none" stroke-linecap="round" stroke-linejoin="round" pointer-events="none"/><g><path d="M -8.196337792470306,-0.37778422662685696 L 1.1,-13.4 7.72,1.161972577127207" fill="none" stroke="#ffc936" stroke-width="4.23" stroke-linecap="round" stroke-linejoin="round" pointer-events="none"/></g></g></g><g font-size="28" font-family="Caveat Brush" text-align="left" fill="#ffc936" transform-origin="top left" transform="translate(76.17602231442692, 46.15)"><text y="18.2"/></g></g><g font-size="96" font-family="Caveat Brush" text-align="center" text-anchor="middle" fill="#1d1d1d" transform="translate(763.5, 27) rotate(0, 28.5, 53)"><text y="62.40" x="28.5">+</text></g><g font-size="96" font-family="Caveat Brush" text-align="center" text-anchor="middle" fill="#1d1d1d" transform="translate(142.5, 51) rotate(0, 28.5, 53)"><text y="62.40" x="28.5">+</text></g><g font-size="96" font-family="Caveat Brush" text-align="center" text-anchor="middle" fill="#1d1d1d" transform="translate(709.5, 411) rotate(0, 28.5, 53)"><text y="62.40" x="28.5">+</text></g><g font-size="96" font-family="Caveat Brush" text-align="center" text-anchor="middle" fill="#1d1d1d" transform="translate(941, 221) rotate(0, 32, 53)"><text y="62.40" x="32">- </text></g><g font-size="96" font-family="Caveat Brush" text-align="center" text-anchor="middle" fill="#1d1d1d" transform="translate(609, 310) rotate(0, 32, 53)"><text y="62.40" x="32">- </text></g><g font-size="96" font-family="Caveat Brush" text-align="center" text-anchor="middle" fill="#1d1d1d" transform="translate(59, 450) rotate(0, 32, 53)"><text y="62.40" x="32">- </text></g><g font-size="96" font-family="Caveat Brush" text-align="center" text-anchor="middle" fill="#1d1d1d" transform="translate(193, 252) rotate(0, 32, 53)"><text y="62.40" x="32">- </text></g><g font-size="28" font-family="Caveat Brush" text-align="center" text-anchor="middle" fill="#ff2133" transform="translate(900, 17) rotate(0, 154, 47)"><text y="18.2" x="154">1. Read counter</text><text y="54.59" x="154">2. Adds value to counter</text><text y="91" x="154">3. Write the new value of counter</text></g></svg>