<?xml version="1.0" encoding="utf-8" standalone="yes"?> <svg width="1023" height="1023" viewBox="-1 -1 31 31" xmlns="http://www.w3.org/2000/svg" xmlns:xlink="http://www.w3.org/1999/xlink" shape-rendering="crispEdges" id="qr code"><rect id="qr background" fill-opacity="1" fill="rgb(255, 255, 255)" x="-1" y="-1" width="31" height="31"></rect><path fill-opacity="1" fill="rgb(0, 0, 0)" id="qr dark pixels" fill-rule="evenodd" d="M 11 0 L 14 0 L 14 2 L 13 2 L 13 1 L 11 1 z M 17 0 L 19 0 L 19 1 L 17 1 z M 9 1 L 11 1 L 11 2 L 9 2 z M 12 2 L 13 2 L 13 4 L 12 4 z M 14 2 L 15 2 L 15 3 L 14 3 z M 16 2 L 17 2 L 17 3 L 16 3 z M 18 2 L 20 2 L 20 3 L 18 3 z M 8 3 L 9 3 L 9 4 L 10 4 L 10 5 L 8 5 z M 17 3 L 18 3 L 18 4 L 20 4 L 20 3 L 21 3 L 21 7 L 20 7 L 20 5 L 18 5 L 18 6 L 17 6 L 17 5 L 14 5 L 14 4 L 17 4 z M 11 5 L 14 5 L 14 6 L 13 6 L 13 7 L 12 7 L 12 6 L 11 6 z M 8 6 L 9 6 L 9 7 L 8 7 z M 10 6 L 11 6 L 11 7 L 12 7 L 12 9 L 11 9 L 11 8 L 10 8 z M 14 6 L 15 6 L 15 9 L 14 9 L 14 10 L 12 10 L 12 9 L 13 9 L 13 8 L 14 8 z M 16 6 L 17 6 L 17 8 L 16 8 z M 18 6 L 19 6 L 19 7 L 18 7 z M 0 8 L 2 8 L 2 9 L 1 9 L 1 10 L 2 10 L 2 9 L 5 9 L 5 10 L 4 10 L 4 11 L 2 11 L 2 12 L 1 12 L 1 11 L 0 11 z M 5 8 L 8 8 L 8 10 L 7 10 L 7 9 L 5 9 z M 9 8 L 10 8 L 10 10 L 9 10 z M 17 8 L 18 8 L 18 9 L 17 9 z M 24 8 L 26 8 L 26 9 L 25 9 L 25 11 L 24 11 L 24 10 L 23 10 L 23 9 L 24 9 z M 15 9 L 16 9 L 16 11 L 15 11 z M 18 9 L 20 9 L 20 10 L 18 10 z M 26 9 L 28 9 L 28 10 L 26 10 z M 5 10 L 7 10 L 7 11 L 6 11 L 6 12 L 4 12 L 4 11 L 5 11 z M 10 10 L 11 10 L 11 11 L 10 11 z M 17 10 L 18 10 L 18 11 L 17 11 z M 21 10 L 23 10 L 23 11 L 22 11 L 22 12 L 21 12 z M 9 11 L 10 11 L 10 13 L 9 13 z M 12 11 L 13 11 L 13 13 L 11 13 L 11 12 L 12 12 z M 14 11 L 15 11 L 15 12 L 14 12 z M 16 11 L 17 11 L 17 13 L 19 13 L 19 15 L 20 15 L 20 19 L 17 19 L 17 18 L 18 18 L 18 17 L 19 17 L 19 16 L 18 16 L 18 14 L 17 14 L 17 16 L 16 16 L 16 15 L 15 15 L 15 14 L 14 14 L 14 13 L 16 13 z M 23 11 L 24 11 L 24 13 L 25 13 L 25 14 L 27 14 L 27 17 L 29 17 L 29 19 L 28 19 L 28 18 L 26 18 L 26 17 L 25 17 L 25 16 L 26 16 L 26 15 L 25 15 L 25 16 L 24 16 L 24 14 L 21 14 L 21 15 L 20 15 L 20 13 L 19 13 L 19 12 L 21 12 L 21 13 L 22 13 L 22 12 L 23 12 z M 25 11 L 26 11 L 26 12 L 25 12 z M 6 12 L 8 12 L 8 14 L 7 14 L 7 13 L 6 13 z M 28 12 L 29 12 L 29 14 L 27 14 L 27 13 L 28 13 z M 0 13 L 1 13 L 1 14 L 0 14 z M 2 13 L 4 13 L 4 14 L 3 14 L 3 15 L 2 15 z M 5 14 L 7 14 L 7 15 L 5 15 z M 9 14 L 14 14 L 14 15 L 12 15 L 12 17 L 10 17 L 10 16 L 8 16 L 8 15 L 9 15 z M 3 15 L 4 15 L 4 17 L 3 17 L 3 18 L 4 18 L 4 19 L 5 19 L 5 21 L 4 21 L 4 20 L 3 20 L 3 21 L 2 21 L 2 19 L 1 19 L 1 21 L 0 21 L 0 17 L 1 17 L 1 18 L 2 18 L 2 17 L 1 17 L 1 16 L 3 16 z M 22 15 L 23 15 L 23 16 L 22 16 z M 28 15 L 29 15 L 29 16 L 28 16 z M 6 16 L 8 16 L 8 17 L 6 17 z M 13 16 L 16 16 L 16 17 L 17 17 L 17 18 L 16 18 L 16 19 L 17 19 L 17 20 L 18 20 L 18 21 L 19 21 L 19 22 L 18 22 L 18 23 L 17 23 L 17 25 L 16 25 L 16 24 L 15 24 L 15 25 L 14 25 L 14 26 L 15 26 L 15 25 L 16 25 L 16 26 L 17 26 L 17 27 L 15 27 L 15 29 L 14 29 L 14 28 L 13 28 L 13 29 L 12 29 L 12 27 L 13 27 L 13 26 L 12 26 L 12 25 L 13 25 L 13 24 L 14 24 L 14 22 L 13 22 L 13 21 L 12 21 L 12 19 L 13 19 L 13 20 L 14 20 L 14 19 L 15 19 L 15 17 L 13 17 zM 15 21 L 17 21 L 17 22 L 15 22 z M 17 16 L 18 16 L 18 17 L 17 17 z M 21 16 L 22 16 L 22 17 L 21 17 z M 23 16 L 24 16 L 24 17 L 25 17 L 25 18 L 26 18 L 26 19 L 25 19 L 25 20 L 22 20 L 22 19 L 24 19 L 24 18 L 22 18 L 22 17 L 23 17 z M 4 17 L 6 17 L 6 18 L 8 18 L 8 19 L 5 19 L 5 18 L 4 18 z M 8 17 L 10 17 L 10 18 L 8 18 z M 12 17 L 13 17 L 13 18 L 12 18 z M 10 18 L 12 18 L 12 19 L 11 19 L 11 20 L 10 20 z M 13 18 L 14 18 L 14 19 L 13 19 z M 8 19 L 9 19 L 9 22 L 13 22 L 13 23 L 12 23 L 12 24 L 11 24 L 11 23 L 10 23 L 10 24 L 11 24 L 11 28 L 9 28 L 9 29 L 8 29 L 8 27 L 10 27 L 10 26 L 9 26 L 9 24 L 8 24 L 8 21 L 6 21 L 6 20 L 8 20 z M 20 19 L 21 19 L 21 20 L 20 20 z M 19 20 L 20 20 L 20 21 L 19 21 z M 26 20 L 29 20 L 29 21 L 26 21 z M 25 21 L 26 21 L 26 22 L 27 22 L 27 23 L 25 23 z M 19 22 L 20 22 L 20 25 L 22 25 L 22 26 L 25 26 L 25 24 L 26 24 L 26 25 L 27 25 L 27 26 L 28 26 L 28 27 L 27 27 L 27 29 L 24 29 L 24 28 L 25 28 L 25 27 L 23 27 L 23 29 L 22 29 L 22 27 L 19 27 L 19 26 L 18 26 L 18 25 L 19 25 L 19 24 L 18 24 L 18 23 L 19 23 z M 28 23 L 29 23 L 29 24 L 28 24 z M 27 24 L 28 24 L 28 25 L 27 25 z M 28 25 L 29 25 L 29 26 L 28 26 z M 28 27 L 29 27 L 29 28 L 28 28 z M 17 28 L 18 28 L 18 29 L 17 29 z M 19 28 L 20 28 L 20 29 L 19 29 z"></path><path id="qr squares" d="M0,0h7h0v0v7v0h0h-7h0v0v-7v0h0zM1,1h5h0v0v5v0h0h-5h0v0v-5v0h0zM2,2h3h0v0v3v0h0h-3h0v0v-3v0h0z M22,0h7h0v0v7v0h0h-7h0v0v-7v0h0zM23,1h5h0v0v5v0h0h-5h0v0v-5v0h0zM24,2h3h0v0v3v0h0h-3h0v0v-3v0h0z M0,22h7h0v0v7v0h0h-7h0v0v-7v0h0zM1,23h5h0v0v5v0h0h-5h0v0v-5v0h0zM2,24h3h0v0v3v0h0h-3h0v0v-3v0h0zM20,20h5h0v0v5v0h0h-5h0v0v-5v0h0zM21,21h3h0v0v3v0h0h-3h0v0v-3v0h0zM22,22h1h0v0v1v0h0h-1h0v0v-1v0h0z" fill-rule="evenodd" fill-opacity="1" fill="rgb(0, 0, 0)"></path></svg>